<svg width="1600" height="1000" viewBox="0 0 1600 1000" fill="none" xmlns="http://www.w3.org/2000/svg">
  <rect width="1600" height="1000" rx="48" fill="#F7F6F2"/>
  <rect x="86" y="86" width="1428" height="828" rx="36" fill="#FFFFFF" stroke="#E7E2D8" stroke-width="4"/>
  <rect x="136" y="136" width="340" height="728" rx="30" fill="#FBFAF7" stroke="#E8E1D5" stroke-width="3"/>
  <rect x="520" y="136" width="944" height="728" rx="30" fill="#FFFFFF" stroke="#E8E1D5" stroke-width="3"/>

  <text x="176" y="206" fill="#8A8377" font-family="Arial, sans-serif" font-size="16" letter-spacing="3">REGISTRATION FLOW</text>
  <rect x="176" y="246" width="260" height="78" rx="24" fill="#ECF5EF" stroke="#D7E8DE" stroke-width="3"/>
  <text x="212" y="294" fill="#244231" font-family="Arial, sans-serif" font-size="28" font-weight="700">1 Date</text>
  <rect x="176" y="350" width="260" height="78" rx="24" fill="#FFFFFF" stroke="#E1DCCF" stroke-width="3"/>
  <text x="212" y="398" fill="#4A463E" font-family="Arial, sans-serif" font-size="28" font-weight="700">2 Ticket</text>
  <rect x="176" y="454" width="260" height="78" rx="24" fill="#244231"/>
  <text x="212" y="502" fill="#FFFFFF" font-family="Arial, sans-serif" font-size="28" font-weight="700">3 Participants</text>
  <rect x="176" y="558" width="260" height="78" rx="24" fill="#FFFFFF" stroke="#E1DCCF" stroke-width="3"/>
  <text x="212" y="606" fill="#4A463E" font-family="Arial, sans-serif" font-size="28" font-weight="700">4 Review</text>

  <text x="564" y="208" fill="#2C2A24" font-family="Arial, sans-serif" font-size="48" font-weight="700">Complete the attendee questionnaire</text>
  <text x="564" y="266" fill="#686257" font-family="Arial, sans-serif" font-size="24">Each participant gets full contact data and dietary fields.</text>

  <rect x="564" y="324" width="396" height="86" rx="24" fill="#FBFAF7" stroke="#E7DFD2" stroke-width="3"/>
  <text x="598" y="360" fill="#8A8377" font-family="Arial, sans-serif" font-size="16" letter-spacing="3">FIRST NAME</text>
  <text x="598" y="394" fill="#2C2A24" font-family="Arial, sans-serif" font-size="28">Marta</text>
  <rect x="984" y="324" width="396" height="86" rx="24" fill="#FBFAF7" stroke="#E7DFD2" stroke-width="3"/>
  <text x="1018" y="360" fill="#8A8377" font-family="Arial, sans-serif" font-size="16" letter-spacing="3">LAST NAME</text>
  <text x="1018" y="394" fill="#2C2A24" font-family="Arial, sans-serif" font-size="28">Bianchi</text>

  <rect x="564" y="436" width="816" height="86" rx="24" fill="#FBFAF7" stroke="#E7DFD2" stroke-width="3"/>
  <text x="598" y="472" fill="#8A8377" font-family="Arial, sans-serif" font-size="16" letter-spacing="3">ADDRESS</text>
  <text x="598" y="506" fill="#2C2A24" font-family="Arial, sans-serif" font-size="28">Via delle Scalette 18, Bologna</text>

  <rect x="564" y="548" width="396" height="86" rx="24" fill="#FBFAF7" stroke="#E7DFD2" stroke-width="3"/>
  <text x="598" y="584" fill="#8A8377" font-family="Arial, sans-serif" font-size="16" letter-spacing="3">PHONE</text>
  <text x="598" y="618" fill="#2C2A24" font-family="Arial, sans-serif" font-size="28">+39 340 123 4567</text>
  <rect x="984" y="548" width="396" height="86" rx="24" fill="#FBFAF7" stroke="#E7DFD2" stroke-width="3"/>
  <text x="1018" y="584" fill="#8A8377" font-family="Arial, sans-serif" font-size="16" letter-spacing="3">EMAIL</text>
  <text x="1018" y="618" fill="#2C2A24" font-family="Arial, sans-serif" font-size="28">marta@example.com</text>

  <text x="564" y="700" fill="#8A8377" font-family="Arial, sans-serif" font-size="16" letter-spacing="3">DIETARY RESTRICTIONS</text>
  <rect x="564" y="724" width="164" height="54" rx="27" fill="#ECF5EF"/>
  <text x="602" y="758" fill="#244231" font-family="Arial, sans-serif" font-size="22" font-weight="700">Gluten free</text>
  <rect x="744" y="724" width="118" height="54" rx="27" fill="#FFF5E8"/>
  <text x="780" y="758" fill="#9A5B18" font-family="Arial, sans-serif" font-size="22" font-weight="700">Nut free</text>
  <rect x="564" y="800" width="816" height="40" rx="20" fill="#F5F5F1"/>
  <text x="598" y="826" fill="#6A655B" font-family="Arial, sans-serif" font-size="20">Other notes: vegetarian menu for participant two</text>
</svg>
