<svg width="1600" height="1000" viewBox="0 0 1600 1000" fill="none" xmlns="http://www.w3.org/2000/svg">
  <rect width="1600" height="1000" rx="48" fill="#F7F6F2"/>
  <rect x="92" y="92" width="1416" height="816" rx="36" fill="#FFFFFF" stroke="#E7E2D8" stroke-width="4"/>
  <rect x="148" y="148" width="1304" height="124" rx="30" fill="#244231"/>
  <text x="192" y="206" fill="#FFFFFF" font-family="Arial, sans-serif" font-size="42" font-weight="700">Registrations and attendee notes</text>
  <text x="192" y="246" fill="#C7D7CF" font-family="Arial, sans-serif" font-size="22">One queue for payment state, dietary flags, and custom requests.</text>

  <rect x="148" y="320" width="1304" height="154" rx="28" fill="#FBFAF7" stroke="#E6DFD4" stroke-width="3"/>
  <text x="190" y="376" fill="#2C2A24" font-family="Arial, sans-serif" font-size="34" font-weight="700">Stone Table Dinner - 18 April</text>
  <rect x="190" y="404" width="170" height="42" rx="21" fill="#ECF5EF"/>
  <text x="228" y="431" fill="#244231" font-family="Arial, sans-serif" font-size="18" font-weight="700">2 attendees</text>
  <rect x="378" y="404" width="172" height="42" rx="21" fill="#EEF4FF"/>
  <text x="420" y="431" fill="#234A85" font-family="Arial, sans-serif" font-size="18" font-weight="700">Deposit paid</text>
  <rect x="568" y="404" width="198" height="42" rx="21" fill="#FFF4E8"/>
  <text x="604" y="431" fill="#8E5D1E" font-family="Arial, sans-serif" font-size="18" font-weight="700">1 dietary restriction</text>

  <rect x="148" y="514" width="628" height="338" rx="30" fill="#FFFFFF" stroke="#E5DED3" stroke-width="3"/>
  <text x="190" y="568" fill="#8A8377" font-family="Arial, sans-serif" font-size="16" letter-spacing="3">ATTENDEES</text>
  <rect x="190" y="604" width="544" height="86" rx="24" fill="#FBFAF7" stroke="#E4DDD1" stroke-width="3"/>
  <text x="224" y="650" fill="#2C2A24" font-family="Arial, sans-serif" font-size="28" font-weight="700">Marta Bianchi</text>
  <text x="224" y="680" fill="#6A655B" font-family="Arial, sans-serif" font-size="20">marta@example.com - +39 340 123 4567</text>
  <rect x="190" y="712" width="544" height="86" rx="24" fill="#FBFAF7" stroke="#E4DDD1" stroke-width="3"/>
  <text x="224" y="758" fill="#2C2A24" font-family="Arial, sans-serif" font-size="28" font-weight="700">Luca Rossi</text>
  <text x="224" y="788" fill="#6A655B" font-family="Arial, sans-serif" font-size="20">luca@example.com - +39 333 765 4321</text>

  <rect x="812" y="514" width="640" height="338" rx="30" fill="#244231"/>
  <text x="854" y="568" fill="#C9D8D1" font-family="Arial, sans-serif" font-size="16" letter-spacing="3">DIETARY OVERVIEW</text>
  <rect x="854" y="604" width="556" height="78" rx="24" fill="#2F523D"/>
  <text x="892" y="650" fill="#FFFFFF" font-family="Arial, sans-serif" font-size="28" font-weight="700">Gluten free - Marta Bianchi</text>
  <rect x="854" y="702" width="556" height="78" rx="24" fill="#2F523D"/>
  <text x="892" y="748" fill="#FFFFFF" font-family="Arial, sans-serif" font-size="28" font-weight="700">Custom note - vegetarian menu</text>
</svg>
