<svg width="1600" height="1000" viewBox="0 0 1600 1000" fill="none" xmlns="http://www.w3.org/2000/svg">
  <rect width="1600" height="1000" rx="48" fill="#F6F5F0"/>
  <rect x="80" y="80" width="1440" height="840" rx="36" fill="#FFFFFF" stroke="#E9E3D8" stroke-width="4"/>
  <rect x="132" y="132" width="1336" height="108" rx="28" fill="#F3F1EA" stroke="#E7E1D4" stroke-width="3"/>
  <rect x="176" y="164" width="560" height="44" rx="22" fill="#FFFFFF" stroke="#DDD8CC" stroke-width="3"/>
  <rect x="768" y="164" width="164" height="44" rx="22" fill="#244231"/>
  <rect x="956" y="164" width="164" height="44" rx="22" fill="#FFFFFF" stroke="#DDD8CC" stroke-width="3"/>
  <rect x="1144" y="164" width="164" height="44" rx="22" fill="#FFFFFF" stroke="#DDD8CC" stroke-width="3"/>
  <text x="176" y="300" fill="#2C2A24" font-family="Arial, sans-serif" font-size="52" font-weight="700">Search by city, organizer, or format</text>
  <text x="176" y="354" fill="#6A655B" font-family="Arial, sans-serif" font-size="26">A calmer discovery page with direct links into organizer pages and live dates.</text>

  <rect x="176" y="430" width="568" height="188" rx="28" fill="#FBFAF7" stroke="#E9E2D6" stroke-width="3"/>
  <text x="212" y="478" fill="#8B857A" font-family="Arial, sans-serif" font-size="16" letter-spacing="3">ALPINE TRAIL LAB</text>
  <text x="212" y="532" fill="#2C2A24" font-family="Arial, sans-serif" font-size="34" font-weight="700">Sunrise Ridge Session</text>
  <text x="212" y="580" fill="#6A655B" font-family="Arial, sans-serif" font-size="22">Venue, published dates, and payment model already visible.</text>
  <rect x="212" y="636" width="162" height="54" rx="27" fill="#244231"/>
  <text x="252" y="670" fill="#FFFFFF" font-family="Arial, sans-serif" font-size="22" font-weight="700">Open event</text>
  <rect x="392" y="636" width="192" height="54" rx="27" fill="#FFFFFF" stroke="#DCD5C9" stroke-width="3"/>
  <text x="432" y="670" fill="#2C2A24" font-family="Arial, sans-serif" font-size="22" font-weight="700">Open organizer</text>

  <rect x="176" y="646" width="568" height="188" rx="28" fill="#FBFAF7" stroke="#E9E2D6" stroke-width="3"/>
  <text x="212" y="694" fill="#8B857A" font-family="Arial, sans-serif" font-size="16" letter-spacing="3">SILLICO</text>
  <text x="212" y="748" fill="#2C2A24" font-family="Arial, sans-serif" font-size="34" font-weight="700">Stone Table Dinner</text>
  <text x="212" y="796" fill="#6A655B" font-family="Arial, sans-serif" font-size="22">Short summaries, clearer dates, fewer decorative distractions.</text>

  <rect x="820" y="430" width="596" height="404" rx="30" fill="#244231"/>
  <text x="868" y="490" fill="#D5E4DC" font-family="Arial, sans-serif" font-size="18" letter-spacing="3">WHY IT FEELS DIFFERENT</text>
  <rect x="868" y="536" width="500" height="70" rx="22" fill="#2D513C"/>
  <text x="904" y="579" fill="#FFFFFF" font-family="Arial, sans-serif" font-size="26" font-weight="700">Calendar-first public pages</text>
  <rect x="868" y="626" width="500" height="70" rx="22" fill="#2D513C"/>
  <text x="904" y="669" fill="#FFFFFF" font-family="Arial, sans-serif" font-size="26" font-weight="700">No template image noise</text>
  <rect x="868" y="716" width="500" height="70" rx="22" fill="#2D513C"/>
  <text x="904" y="759" fill="#FFFFFF" font-family="Arial, sans-serif" font-size="26" font-weight="700">Direct links into registration</text>
</svg>
