<svg width="1600" height="1000" viewBox="0 0 1600 1000" fill="none" xmlns="http://www.w3.org/2000/svg">
  <rect width="1600" height="1000" rx="48" fill="#F6F5F0"/>
  <rect x="96" y="96" width="1408" height="808" rx="36" fill="#FFFFFF" stroke="#E6E0D6" stroke-width="4"/>
  <rect x="150" y="150" width="900" height="700" rx="30" fill="#FBFAF7" stroke="#E6DFD4" stroke-width="3"/>
  <rect x="1088" y="150" width="362" height="700" rx="30" fill="#244231"/>
  <text x="196" y="220" fill="#2C2A24" font-family="Arial, sans-serif" font-size="38" font-weight="700">Published dates</text>
  <text x="196" y="264" fill="#6A655B" font-family="Arial, sans-serif" font-size="22">Sales windows and capacity stay aligned date by date.</text>
  <g fill="#8A8377" font-family="Arial, sans-serif" font-size="18" font-weight="700">
    <text x="196" y="332">MON</text><text x="316" y="332">TUE</text><text x="436" y="332">WED</text><text x="556" y="332">THU</text><text x="676" y="332">FRI</text><text x="796" y="332">SAT</text><text x="916" y="332">SUN</text>
  </g>
  <g>
    <rect x="186" y="356" width="112" height="96" rx="22" fill="#FFFFFF" stroke="#E0DACE" stroke-width="3"/>
    <rect x="306" y="356" width="112" height="96" rx="22" fill="#ECF5EF" stroke="#D7E7DE" stroke-width="3"/>
    <rect x="426" y="356" width="112" height="96" rx="22" fill="#FFFFFF" stroke="#E0DACE" stroke-width="3"/>
    <rect x="546" y="356" width="112" height="96" rx="22" fill="#FFFFFF" stroke="#E0DACE" stroke-width="3"/>
    <rect x="666" y="356" width="112" height="96" rx="22" fill="#FFF4E8" stroke="#F1DDC4" stroke-width="3"/>
    <rect x="786" y="356" width="112" height="96" rx="22" fill="#FFFFFF" stroke="#E0DACE" stroke-width="3"/>
    <rect x="906" y="356" width="112" height="96" rx="22" fill="#ECF5EF" stroke="#D7E7DE" stroke-width="3"/>
  </g>
  <g fill="#2C2A24" font-family="Arial, sans-serif" font-size="30" font-weight="700">
    <text x="224" y="412">14</text><text x="344" y="412">15</text><text x="464" y="412">16</text><text x="584" y="412">17</text><text x="704" y="412">18</text><text x="824" y="412">19</text><text x="944" y="412">20</text>
  </g>
  <rect x="186" y="500" width="832" height="118" rx="26" fill="#FFFFFF" stroke="#E0DACE" stroke-width="3"/>
  <text x="224" y="546" fill="#8A8377" font-family="Arial, sans-serif" font-size="16" letter-spacing="3">SELECTED DATE</text>
  <text x="224" y="594" fill="#2C2A24" font-family="Arial, sans-serif" font-size="34" font-weight="700">Friday 18 April - Sunrise Ridge Session</text>

  <text x="1132" y="228" fill="#D4E4DB" font-family="Arial, sans-serif" font-size="16" letter-spacing="3">DATE RULES</text>
  <rect x="1132" y="268" width="274" height="84" rx="24" fill="#2F523D"/>
  <text x="1168" y="306" fill="#BFD4C8" font-family="Arial, sans-serif" font-size="16" letter-spacing="3">SALES WINDOW</text>
  <text x="1168" y="336" fill="#FFFFFF" font-family="Arial, sans-serif" font-size="24" font-weight="700">Open until 17 April</text>
  <rect x="1132" y="376" width="274" height="84" rx="24" fill="#2F523D"/>
  <text x="1168" y="414" fill="#BFD4C8" font-family="Arial, sans-serif" font-size="16" letter-spacing="3">CAPACITY</text>
  <text x="1168" y="444" fill="#FFFFFF" font-family="Arial, sans-serif" font-size="24" font-weight="700">24 seats total</text>
  <rect x="1132" y="484" width="274" height="84" rx="24" fill="#2F523D"/>
  <text x="1168" y="522" fill="#BFD4C8" font-family="Arial, sans-serif" font-size="16" letter-spacing="3">MESSAGE</text>
  <text x="1168" y="552" fill="#FFFFFF" font-family="Arial, sans-serif" font-size="24" font-weight="700">Registration closes clearly</text>
</svg>
